# xmcd
#
# Track frame offsets: 
#        150
#        12499
#        26375
#        40343
#        53419
#        66344
#        78304
#        89735
#        101095
#        114125
#        128725
#        140052
#        156553
#        163345
#
# Disc length: 2340 seconds
#
# Revision: 0
# Processed by: cddbd v1.5.2PL0 Copyright (c) Steve Scherf et al.
# Submitted via: ExactAudioCopy v0.99pb5
#
DISCID=be09220e
DTITLE=Various Artist - Country
DYEAR=1900
DGENRE=Country
TTITLE0=I Walk The Line - Johnny Cash
TTITLE1=Listen To The Radio - Juice Newton
TTITLE2=Take Me Home Country Roads (live) - John Denver
TTITLE3=Rose Garden - Lynn Anderson
TTITLE4=The Most Beautiful Girl - Charlie Rich
TTITLE5=Stand By Your Man - Tammy Wynette
TTITLE6=Oh Lonesome Me - Don Gibson
TTITLE7=Help Me Make It Through The Night - James Darren
TTITLE8=Jambalaya (On The Bayou) - Hank Williams
TTITLE9=These Boots Are Made For Walking - Lee Hazlewood
TTITLE10=Sea Of Heartbreak - Don Gibson
TTITLE11=Diddley Dee, Diddley Dee - Gordon Lightfoot
TTITLE12=It´s So Easy (To Fall In Love) - Waylon Jennings
TTITLE13=Green Green Grass Of Home - Bobby Bare
EXTD=
EXTT0=
EXTT1=
EXTT2=
EXTT3=
EXTT4=
EXTT5=
EXTT6=
EXTT7=
EXTT8=
EXTT9=
EXTT10=
EXTT11=
EXTT12=
EXTT13=
PLAYORDER=
